<?xml version="1.0" encoding="UTF-8" standalone="no"?>
<!-- Created with Inkscape (http://www.inkscape.org/) -->

<svg
   xmlns:dc="http://purl.org/dc/elements/1.1/"
   xmlns:cc="http://creativecommons.org/ns#"
   xmlns:rdf="http://www.w3.org/1999/02/22-rdf-syntax-ns#"
   xmlns:svg="http://www.w3.org/2000/svg"
   xmlns="http://www.w3.org/2000/svg"
   xmlns:sodipodi="http://sodipodi.sourceforge.net/DTD/sodipodi-0.dtd"
   xmlns:inkscape="http://www.inkscape.org/namespaces/inkscape"
   width="147"
   height="32"
   id="svg2"
   version="1.1"
   inkscape:version="0.48.4 r9939"
   sodipodi:docname="openshiftDeploy.svg"
   inkscape:export-filename="/tmp/openshiftDeploy.png"
   inkscape:export-xdpi="90"
   inkscape:export-ydpi="90">
  <defs
     id="defs4" />
  <sodipodi:namedview
     id="base"
     pagecolor="#ffffff"
     bordercolor="#666666"
     borderopacity="1.0"
     inkscape:pageopacity="0.0"
     inkscape:pageshadow="2"
     inkscape:zoom="3.959798"
     inkscape:cx="42.066865"
     inkscape:cy="-6.6652749"
     inkscape:document-units="px"
     inkscape:current-layer="layer1"
     showgrid="false"
     inkscape:window-width="1920"
     inkscape:window-height="1059"
     inkscape:window-x="0"
     inkscape:window-y="0"
     inkscape:window-maximized="1" />
  <metadata
     id="metadata7">
    <rdf:RDF>
      <cc:Work
         rdf:about="">
        <dc:format>image/svg+xml</dc:format>
        <dc:type
           rdf:resource="http://purl.org/dc/dcmitype/StillImage" />
        <dc:title></dc:title>
      </cc:Work>
    </rdf:RDF>
  </metadata>
  <g
     inkscape:label="Layer 1"
     inkscape:groupmode="layer"
     id="layer1"
     transform="translate(0,-1020.3622)">
    <rect
       style="color:#000000;fill:#000000;fill-opacity:1;fill-rule:nonzero;stroke:#999999;stroke-width:0.98125695999999996;marker:none;visibility:visible;display:inline;overflow:visible;enable-background:accumulate;stroke-opacity:1"
       id="rect3162"
       width="146.01875"
       height="31.018744"
       x="0.49062347"
       y="1020.8528"
       rx="4.9666238"
       ry="4.8466787" />
    <g
       id="g3153"
       transform="matrix(0.65703833,0,0,0.65703833,9.4700332,357.55692)">
      <g
         transform="matrix(0.31030645,0,0,0.31030645,-11.972778,1006.7419)"
         id="g3069">
        <path
           id="path3071"
           d="m 78.621,78.245 -23.025,8.379 c 0.294,3.692 0.931,7.339 1.824,10.911 L 79.293,89.571 C 78.582,85.874 78.33,82.062 78.621,78.245"
           inkscape:connector-curvature="0"
           style="fill:#db242f" />
        <path
           id="path3073"
           d="m 180.379,52.784 c -1.605,-3.312 -3.463,-6.514 -5.615,-9.53 l -23.021,8.378 c 2.679,2.741 4.927,5.82 6.765,9.114 l 21.871,-7.962 z"
           inkscape:connector-curvature="0"
           style="fill:#db242f" />
        <path
           id="path3075"
           d="m 129.725,46.263 c 4.789,2.235 8.938,5.284 12.437,8.859 l 23.022,-8.38 C 158.807,37.795 150.121,30.318 139.479,25.352 106.569,10.006 67.305,24.296 51.96,57.2 46.993,67.849 45.148,79.161 46.014,90.112 l 23.024,-8.378 c 0.382,-4.988 1.601,-9.987 3.831,-14.78 9.971,-21.381 35.475,-30.659 56.856,-20.691"
           inkscape:connector-curvature="0"
           style="fill:#db242f" />
        <path
           id="path3077"
           d="m 58.854,97.011 -21.875,7.967 c 2.011,7.977 5.496,15.553 10.287,22.297 l 22.973,-8.361 C 64.342,112.857 60.42,105.196 58.854,97.011"
           inkscape:connector-curvature="0"
           style="fill:#db242f" />
        <path
           id="path3079"
           d="m 154.277,88.331 c -0.367,4.985 -1.625,9.985 -3.863,14.782 -9.971,21.383 -35.476,30.661 -56.854,20.692 -4.796,-2.238 -8.976,-5.262 -12.463,-8.844 l -22.974,8.363 c 6.361,8.947 15.039,16.428 25.687,21.396 32.91,15.344 72.169,1.053 87.515,-31.855 4.97,-10.644 6.804,-21.952 5.926,-32.895 l -22.974,8.361 z"
           inkscape:connector-curvature="0"
           style="fill:#db242f" />
        <path
           id="path3081"
           d="m 159.938,60.224 -21.873,7.962 c 4.062,7.279 5.981,15.662 5.354,24.091 l 22.973,-8.357 c -0.658,-8.245 -2.857,-16.292 -6.454,-23.696"
           inkscape:connector-curvature="0"
           style="fill:#db242f" />
      </g>
    </g>
    <g
       id="g3083"
       transform="matrix(0.55979248,0,0,0.55979248,28.724967,940.3391)"
       style="fill:#ffffff">
      <g
         id="g3085"
         style="fill:#ffffff">
        <path
           style="fill:#ffffff"
           inkscape:connector-curvature="0"
           d="m 37.346,175.777 c -2.863,0 -4.761,2.309 -4.761,6.455 0,4.148 1.985,6.514 4.849,6.514 2.862,0 4.76,-2.307 4.76,-6.455 0,-4.148 -1.986,-6.514 -4.848,-6.514 m 0.029,17.028 c -5.346,0 -8.996,-3.912 -8.996,-10.514 0,-6.602 3.709,-10.574 9.055,-10.574 5.315,0 8.967,3.916 8.967,10.516 -0.001,6.601 -3.71,10.572 -9.026,10.572"
           id="path3087" />
        <path
           style="fill:#ffffff"
           inkscape:connector-curvature="0"
           d="M 59.653,176.012 H 54.95 v 5.256 h 4.761 c 1.898,0 2.922,-0.877 2.922,-2.656 0,-1.782 -1.17,-2.6 -2.98,-2.6 m -0.205,9.23 H 54.95 v 7.242 h -4.089 v -20.445 h 8.938 c 3.855,0 7.039,2.133 7.039,6.484 0,4.733 -3.154,6.719 -7.39,6.719"
           id="path3089" />
      </g>
      <polygon
         style="fill:#ffffff"
         points="85.699,192.484 71.066,192.484 71.066,172.041 85.262,172.041 85.262,176.041 75.155,176.041 75.155,179.574 81.025,179.574 81.025,183.547 75.155,183.547 75.155,188.482 85.699,188.482 "
         id="polygon3091" />
      <g
         id="g3093"
         style="fill:#ffffff">
        <path
           style="fill:#ffffff"
           inkscape:connector-curvature="0"
           d="m 103.304,192.484 -7.507,-11.158 c -0.496,-0.758 -1.168,-1.781 -1.43,-2.307 0,0.76 0.058,3.33 0.058,4.469 v 8.996 h -4.031 v -20.443 h 3.914 l 7.244,10.805 c 0.495,0.76 1.168,1.783 1.431,2.307 0,-0.76 -0.059,-3.328 -0.059,-4.469 v -8.643 h 4.031 v 20.443 h -3.651 z"
           id="path3095" />
        <path
           style="fill:#ffffff"
           inkscape:connector-curvature="0"
           d="m 119.397,192.805 c -2.775,0 -5.259,-1.197 -6.864,-2.832 l 1.52,-1.695 c 1.547,1.49 3.328,2.455 5.432,2.455 2.717,0 4.411,-1.344 4.411,-3.506 0,-1.898 -1.14,-2.979 -4.878,-4.322 -4.41,-1.578 -5.9,-3.008 -5.9,-5.959 0,-3.27 2.571,-5.229 6.396,-5.229 2.746,0 4.498,0.818 6.222,2.191 l -1.461,1.781 c -1.489,-1.227 -2.862,-1.898 -4.906,-1.898 -2.804,0 -3.973,1.402 -3.973,3.008 0,1.695 0.76,2.658 4.849,4.121 4.527,1.635 5.93,3.152 5.93,6.191 -10e-4,3.213 -2.514,5.694 -6.778,5.694"
           id="path3097" />
      </g>
      <polygon
         style="fill:#ffffff"
         points="145.969,192.484 143.69,192.484 143.69,182.846 133.526,182.846 133.526,192.484 131.248,192.484 131.248,172.041 133.526,172.041 133.526,180.773 143.69,180.773 143.69,172.041 145.969,172.041 "
         id="polygon3099" />
      <rect
         style="fill:#ffffff"
         x="151.832"
         y="172.041"
         width="2.277"
         height="20.443001"
         id="rect3101" />
      <polygon
         style="fill:#ffffff"
         points="167.859,182.963 162.252,182.963 162.252,192.484 159.975,192.484 159.975,172.041 171.979,172.041 171.979,174.111 162.252,174.111 162.252,180.889 167.859,180.889 "
         id="polygon3103" />
      <polygon
         style="fill:#ffffff"
         points="190.379,172.039 176.066,172.039 176.066,174.113 182.083,174.113 182.083,192.484 184.361,192.484 184.361,174.113 190.379,174.113 "
         id="polygon3105" />
    </g>
    <text
       xml:space="preserve"
       style="font-size:12.60974693px;font-style:normal;font-variant:normal;font-weight:normal;font-stretch:normal;line-height:125%;letter-spacing:0px;word-spacing:0px;fill:#ffffff;fill-opacity:1;stroke:none;font-family:Liberation Sans;-inkscape-font-specification:Liberation Sans"
       x="61.440964"
       y="1031.6372"
       id="text3164"
       sodipodi:linespacing="125%"><tspan
         sodipodi:role="line"
         id="tspan3166"
         x="61.440964"
         y="1031.6372">Deploy on</tspan></text>
  </g>
</svg>
